<svg width="24" height="21" viewBox="0 0 24 21" fill="none" xmlns="http://www.w3.org/2000/svg">
<path fill-rule="evenodd" clip-rule="evenodd" d="M12.0433 2.70977L11.3788 1.9284C8.70487 -0.7619 4.44058 -0.57857 1.76662 2.11173C-0.907338 4.80204 -0.392728 10.0033 2.28123 12.6936C3.36648 13.7855 4.99171 15.2973 7.15691 17.229L8.97847 18.8413L11.0244 20.628C11.5877 21.1172 12.42 21.1247 12.992 20.6458L14.6494 19.2476C17.5518 16.7797 19.7056 14.8359 21.1108 13.416L21.4755 13.0418L21.8031 12.6936C24.2934 9.99167 24.9333 4.73947 22.3216 2.11173L22.1324 1.9284C19.4469 -0.577115 15.3973 -0.699335 12.7855 1.9284L12.0433 2.70977ZM2.84254 3.19423C4.95695 1.06689 8.22805 0.967159 10.2636 2.97177L11.981 4.99116L13.8855 2.98611C15.8391 1.02115 18.9526 1.04956 21.0977 3.05093L21.2661 3.21441C23.1117 5.07167 22.7977 9.36297 20.6874 11.6527L20.3703 11.9896L20.0187 12.3503C18.8537 13.5265 17.1274 15.1024 14.8511 17.065L13.6672 18.0784L12.0186 19.4691L9.97589 17.6852L8.51393 16.3931C6.45391 14.5613 4.86474 13.0961 3.75206 12.0034L3.35715 11.6111C1.15437 9.39485 0.87886 5.16991 2.84254 3.19423Z" fill="#262626"/>
</svg>
